<?xml version="1.0" encoding="utf-8"?>
<!-- Generator: Adobe Illustrator 24.1.1, SVG Export Plug-In . SVG Version: 6.00 Build 0)  -->
<svg version="1.1" id="Ebene_1" xmlns="http://www.w3.org/2000/svg" xmlns:xlink="http://www.w3.org/1999/xlink" x="0px" y="0px"
	 viewBox="0 0 1074.4 685.5" style="enable-background:new 0 0 1074.4 685.5;" xml:space="preserve">
<style type="text/css">
	.st0{fill:#805326;}
	.st1{fill:#786600;}
	.st2{fill:#799AB1;}
	.st3{fill:#DD7500;}
	.st4{fill:#B70E0C;}
	.st5{fill:#BAAFA5;}
	.st6{fill:none;stroke:#000000;stroke-miterlimit:10;}
</style>
<g>
	<g>
		<path class="st0" d="M474.2,0l133.1,52.8l178.2,187.1l-155.1-82.5L474.2,0z"/>
	</g>
	<g>
		<path class="st1" d="M590.9,182.6l-288.3,30.8l19.8,278.4l264.1-48.4L590.9,182.6z"/>
	</g>
	<g>
		<path class="st2" d="M629.4,187.1l154,89.1l-20.9,311.4L622.8,448.9L629.4,187.1z"/>
	</g>
	<g>
		<path class="st3" d="M424.7,685.5l320.2-74.8l19.8-318l-351,48.4L424.7,685.5z"/>
	</g>
	<g>
		<path class="st4" d="M359.8,294.9l-83.6-102.3l165-190.4l126.5,53.9L359.8,294.9z"/>
	</g>
	<g>
		<path class="st5" d="M378.5,674.5l-16.5-340l-83.6-108.9l19.8,283.9L378.5,674.5z"/>
	</g>
</g>
<path d="M520.4,202.7c-85.9,0-147.7,55.1-147.7,183.8c0,145.8,61.7,184.4,147.7,184.4s151.3-42.3,151.3-184.4
	C671.8,234.6,606.4,202.7,520.4,202.7L520.4,202.7z M521,522.5c-59.5,0-90.6-34.9-90.6-135.9c0-89.1,32.4-136.1,91.9-136.1
	s91.9,30.9,91.9,136.1C614.2,485,580.5,522.5,521,522.5z"/>
<path class="st1" d="M321.3,469.2h-35.5V364.6c0-11.6-9.4-21-21-21h-8.3c-11.6,0-21,9.4-21,21v104.6H135.3c-6.6,0-12-5.4-12-12
	c0-1.9,0.5-3.9,1.4-5.6l106.1-200.8c5.4-10.2,1.5-22.9-8.7-28.3c-0.3-0.1-0.6-0.3-0.8-0.4l-6.3-3c-10.1-4.8-22.2-0.8-27.4,9.1
	l-129.4,242c-2.2,4.1-3.4,8.7-3.4,13.4c0,15.7,12.7,28.4,28.4,28.4c0,0,0,0,0,0h152.3v66.2c0,13.9,11.2,25.1,25.1,25.1c0,0,0,0,0,0
	c13.9,0,25.1-11.2,25.1-25.1c0,0,0,0,0,0v-66.2h35.5c11.8,0,21.4-9.6,21.4-21.4S333.2,469.2,321.3,469.2L321.3,469.2z M979.3,469.2
	h-35.5V364.6c0-11.6-9.4-21-21-21h-8.3c-11.6,0-21,9.4-21,21v104.6H793.3c-6.6,0-12-5.4-12-12c0-1.9,0.5-3.9,1.4-5.6l106.1-200.8
	c5.4-10.2,1.5-22.9-8.7-28.3c-0.3-0.1-0.6-0.3-0.8-0.4l-6.3-3c-10.1-4.8-22.2-0.8-27.4,9.1l-129.4,242c-2.2,4.1-3.4,8.7-3.4,13.4
	c0,15.7,12.7,28.4,28.4,28.4c0,0,0,0,0,0h152.3v66.2c0,13.9,11.2,25.1,25.1,25.1c0,0,0,0,0,0c13.9,0,25.1-11.2,25.1-25.1v-66.2h35.5
	c11.8,0,21.4-9.6,21.4-21.4S991.2,469.2,979.3,469.2L979.3,469.2z"/>
<path class="st6" d="M331.1,457h-35.5V352.3c0-11.6-9.4-21-21-21h-8.3c-11.6,0-21,9.4-21,21V457H145.1c-6.6,0-12-5.4-12-12
	c0-1.9,0.5-3.9,1.4-5.6l106.1-200.8c5.4-10.2,1.5-22.9-8.7-28.3c-0.3-0.1-0.6-0.3-0.8-0.4l-6.3-3c-10.1-4.8-22.2-0.8-27.4,9.1
	L68,458c-2.2,4.1-3.4,8.7-3.4,13.4c0,15.7,12.7,28.4,28.4,28.4c0,0,0,0,0,0h152.3V566c0,13.9,11.2,25.1,25.1,25.1c0,0,0,0,0,0
	c13.9,0,25.1-11.2,25.1-25.1c0,0,0,0,0,0v-66.2h35.5c11.8,0,21.4-9.6,21.4-21.4S343,457,331.1,457L331.1,457z M997.7,457h-35.5
	V352.3c0-11.6-9.4-21-21-21h-8.3c-11.6,0-21,9.4-21,21V457H811.7c-6.6,0-12-5.4-12-12c0-1.9,0.5-3.9,1.4-5.6l106.1-200.8
	c5.4-10.2,1.5-22.9-8.7-28.3c-0.3-0.1-0.6-0.3-0.8-0.4l-6.3-3c-10.1-4.8-22.2-0.8-27.4,9.1L734.5,458c-2.2,4.1-3.4,8.7-3.4,13.4
	c0,15.7,12.7,28.4,28.4,28.4h152.3V566c0,13.9,11.2,25.1,25.1,25.1c13.9,0,25.1-11.2,25.1-25.1c0,0,0,0,0,0v-66.2h35.5
	c11.8,0,21.4-9.6,21.4-21.4S1009.5,457,997.7,457z M540,191.7c-85.9,0-147.6,55.1-147.6,183.8c0,145.8,61.7,184.4,147.6,184.4
	s151.3-42.3,151.3-184.4C691.4,223.5,626,191.7,540,191.7L540,191.7z M540.6,511.5c-59.5,0-90.6-34.9-90.6-135.9
	c0-89.1,32.4-136.1,91.9-136.1s91.9,30.9,91.9,136.1C633.8,474,600.1,511.5,540.6,511.5L540.6,511.5z"/>
<path class="st4" d="M404.8,35.7"/>
</svg>
